<?xml version="1.0" encoding="UTF-8" standalone="no"?>
<svg width="46px" height="46px" viewBox="0 0 46 46" version="1.1" xmlns="http://www.w3.org/2000/svg" xmlns:xlink="http://www.w3.org/1999/xlink" xmlns:sketch="http://www.bohemiancoding.com/sketch/ns">
    <!-- Generator: Sketch 3.1.1 (8761) - http://www.bohemiancoding.com/sketch -->
    <title>crown~web</title>
    <desc>Created with Sketch.</desc>
    <defs></defs>
    <g id="Icons" stroke="none" stroke-width="1" fill="none" fill-rule="evenodd" sketch:type="MSPage">
        <g id="crown~web" sketch:type="MSArtboardGroup">
            <path d="M18,25 L18,20.9998075 C18,20.4476291 18.3138733,20.3212832 18.6967468,20.7131956 L22,24.0944318 L18,25 Z" id="Path-7" fill="#EBEBEB" sketch:type="MSShapeGroup"></path>
            <path d="M24,25 L24,20.9998075 C24,20.4476291 24.3138733,20.3212832 24.6967468,20.7131956 L28,24.0944318 L24,25 Z" id="Path-7" fill="#EBEBEB" sketch:type="MSShapeGroup" transform="translate(26.000000, 22.500000) scale(-1, 1) translate(-26.000000, -22.500000) "></path>
            <path d="M15.9215716,26.0000738 L14.2423761,21.8933405 C13.6141162,20.3568334 14.1763861,19.9217324 15.5046276,20.9263458 L18.5724088,23.2466574 C18.9062129,23.4991296 19.4695005,23.5562171 19.8470508,23.3658441 L20.0245797,23.2763283 C20.3947409,23.0896811 20.7983075,22.6094801 20.9170877,22.2319999 L22.2030747,18.1451682 C22.7002821,16.5650566 23.4672982,16.5825622 23.9144587,18.1778669 L25.046978,22.2182802 C25.1584515,22.6159768 25.5415044,23.0859552 25.9190545,23.2763282 L26.0965832,23.365844 C26.4667442,23.5524912 27.0277255,23.5064626 27.3712248,23.2466574 L30.4390063,20.9263458 C31.7643885,19.9238951 32.3704357,20.3747653 31.7927686,21.9330744 L30.2851262,26.0000752 L29.845449,28.4678698 C29.7721224,28.8794334 29.4219804,29.045631 29.0522965,28.8563312 C29.0522965,28.8563312 27.0907029,27.5309235 23.1033481,27.5309238 C19.1159933,27.5309241 17.1630442,28.8488539 17.1630442,28.8488539 C16.7996098,29.0447646 16.4447496,28.8728159 16.3696741,28.4605805 L15.9215716,26.0000738 Z" id="Star-1" fill="#FAFAFA" sketch:type="MSShapeGroup"></path>
            <path d="M23,41 C32.941126,41 41,32.941126 41,23 C41,13.058874 32.941126,5 23,5 C13.058874,5 5,13.058874 5,23 C5,32.941126 13.058874,41 23,41 Z" id="Oval-1" stroke="#FAFAFA" stroke-width="3" sketch:type="MSShapeGroup"></path>
        </g>
    </g>
</svg>