<?xml version="1.0" encoding="UTF-8" standalone="no"?>
<svg width="48px" height="48px" viewBox="0 0 48 48" version="1.1" xmlns="http://www.w3.org/2000/svg" xmlns:xlink="http://www.w3.org/1999/xlink" xmlns:sketch="http://www.bohemiancoding.com/sketch/ns">
    <!-- Generator: Sketch 3.1.1 (8761) - http://www.bohemiancoding.com/sketch -->
    <title>rampart~web</title>
    <desc>Created with Sketch.</desc>
    <defs></defs>
    <g id="Icons" stroke="none" stroke-width="1" fill="none" fill-rule="evenodd" sketch:type="MSPage">
        <g id="rampart~web" sketch:type="MSArtboardGroup" fill="#FAFAFA">
            <path d="M39.4910052,39 C39.2198305,39 39,39.2157526 39,39.495389 L39,41.504611 C39,41.7782068 38.7721195,42 38.5089948,42 L33.4910052,42 C33.2198305,42 33,41.7842474 33,41.504611 L33,39.495389 C33,39.2217932 32.7721195,39 32.5089948,39 L27.4910052,39 C27.2198305,39 27,39.2157526 27,39.495389 L27,41.504611 C27,41.7782068 26.7721195,42 26.5089948,42 L21.4910052,42 C21.2198305,42 21,41.7842474 21,41.504611 L21,39.495389 C21,39.2217932 20.7721195,39 20.5089948,39 L15.4910052,39 C15.2198305,39 15,39.2157526 15,39.495389 L15,41.504611 C15,41.7782068 14.7721195,42 14.5089948,42 L9.49100518,42 C9.21983051,42 9,41.7842474 9,41.504611 L9,39.495389 C9,39.2217932 8.77211952,39 8.50899482,39 L3.49100518,39 C3.21983051,39 3,39.2278805 3,39.4910052 L3,42.4902248 C3,43.8763354 4.12339854,45 5.50151253,45 L42.4984875,45 C43.8800347,45 45,43.8714459 45,42.4902248 L45,39.4910052 C45,39.2198305 44.7721195,39 44.5089948,39 L39.4910052,39 Z" id="rampart" sketch:type="MSShapeGroup"></path>
        </g>
    </g>
</svg>