<?xml version="1.0" encoding="UTF-8" standalone="no"?>
<svg width="46px" height="46px" viewBox="0 0 46 46" version="1.1" xmlns="http://www.w3.org/2000/svg" xmlns:xlink="http://www.w3.org/1999/xlink" xmlns:sketch="http://www.bohemiancoding.com/sketch/ns">
    <!-- Generator: Sketch 3.1.1 (8761) - http://www.bohemiancoding.com/sketch -->
    <title>unfortifiable-icon~web</title>
    <desc>Created with Sketch.</desc>
    <defs></defs>
    <g id="Icons" stroke="none" stroke-width="1" sketch:type="MSPage">
        <g id="unfortifiable-icon~web" sketch:type="MSArtboardGroup">
            <g id="version-1" sketch:type="MSLayerGroup" transform="translate(2.000000, 2.000000)">
                <path d="M36,33.6216019 C36,33.2783007 36.2733986,33 36.6195066,33 L41.3804934,33 C41.7226374,33 42,32.7231445 42,32.3783981 L42,30.6216019 C42,30.2783007 41.7268167,30 41.3884206,30 L31.2390132,30 C30.5547251,30 30,30.5467973 30,31.2390132 L30,41.3884206 C30,41.7261866 30.2768555,42 30.6216019,42 L32.3783981,42 C32.7216993,42 33,41.7266014 33,41.3804934 L33,36.6195066 C33,36.2773626 33.2768555,36 33.6216019,36 L35.3783981,36 C35.7216993,36 36,35.7231445 36,35.3783981 L36,33.6216019 Z" id="rampart-4" sketch:type="MSShapeGroup" transform="translate(36.000000, 36.000000) scale(-1, -1) translate(-36.000000, -36.000000) "></path>
                <path d="M36,3.62160194 C36,3.27830067 36.2733986,3 36.6195066,3 L41.3804934,3 C41.7226374,3 42,2.72314453 42,2.37839806 L42,0.621601939 C42,0.278300668 41.7268167,-8.52651283e-14 41.3884206,-8.52651283e-14 L31.2390132,-8.52651283e-14 C30.5547251,-8.52651283e-14 30,0.546797276 30,1.2390132 L30,11.3884206 C30,11.7261866 30.2768555,12 30.6216019,12 L32.3783981,12 C32.7216993,12 33,11.7266014 33,11.3804934 L33,6.6195066 C33,6.27736255 33.2768555,6 33.6216019,6 L35.3783981,6 C35.7216993,6 36,5.72314453 36,5.37839806 L36,3.62160194 Z" id="rampart-5" sketch:type="MSShapeGroup" transform="translate(36.000000, 6.000000) scale(-1, 1) translate(-36.000000, -6.000000) "></path>
                <path d="M6,3.62160194 C6,3.27830067 6.27339864,3 6.6195066,3 L11.3804934,3 C11.7226374,3 12,2.72314453 12,2.37839806 L12,0.621601939 C12,0.278300668 11.7268167,-8.52651283e-14 11.3884206,-8.52651283e-14 L1.2390132,-8.52651283e-14 C0.554725103,-8.52651283e-14 0,0.546797276 0,1.2390132 L0,11.3884206 C0,11.7261866 0.276855469,12 0.621601939,12 L2.37839806,12 C2.72169933,12 3,11.7266014 3,11.3804934 L3,6.6195066 C3,6.27736255 3.27685547,6 3.62160194,6 L5.37839806,6 C5.72169933,6 6,5.72314453 6,5.37839806 L6,3.62160194 Z" id="rampart-6" sketch:type="MSShapeGroup"></path>
                <path d="M6,33.6216019 C6,33.2783007 6.27339864,33 6.6195066,33 L11.3804934,33 C11.7226374,33 12,32.7231445 12,32.3783981 L12,30.6216019 C12,30.2783007 11.7268167,30 11.3884206,30 L1.2390132,30 C0.554725103,30 0,30.5467973 0,31.2390132 L0,41.3884206 C0,41.7261866 0.276855469,42 0.621601939,42 L2.37839806,42 C2.72169933,42 3,41.7266014 3,41.3804934 L3,36.6195066 C3,36.2773626 3.27685547,36 3.62160194,36 L5.37839806,36 C5.72169933,36 6,35.7231445 6,35.3783981 L6,33.6216019 Z" id="rampart-7" sketch:type="MSShapeGroup" transform="translate(6.000000, 36.000000) scale(1, -1) translate(-6.000000, -36.000000) "></path>
            </g>
        </g>
    </g>
</svg>
